<?xml version="1.0" standalone="no"?><!DOCTYPE svg PUBLIC "-//W3C//DTD SVG 1.1//EN" "http://www.w3.org/Graphics/SVG/1.1/DTD/svg11.dtd"><svg xmlns="http://www.w3.org/2000/svg" width="600" height="400" viewBox="0 0 600 400"><g class="sankey" transform="translate(70,0)"><g class="groups"/><g class="links"><g class="link" style="opacity: 0.8;"><path d="M222.58411758363488,182.77555400180808 A94.22835413468285 94.22835413468285 0.5189587792342159 0 0 269.31914588461234,170.3690786810344 L412.2730191443982,88.71667214408366 A96.22835413468285 96.22835413468285 0.5189587792342159 0 1 460,76.0468689654756 L460,78.0468689654756 A94.22835413468285 94.22835413468285 0.5189587792342159 0 0 413.26497169902257,90.45334428624925 L270.31109843923673,172.10575082320003 A96.22835413468285 96.22835413468285 0.5189587792342159 0 1 222.58411758363488,184.77555400180808 Z" style="fill: rgb(255, 255, 0);"/><title>SNP2010 → CON2015
507m</title></g><g class="link" style="opacity: 0.8;"><path d="M222.58411758363488,357.9525955123559 A308.8986962610858 308.8986962610858 0.1420870966571255 0 0 266.3271030996631,354.8396997226836 L415.9737955125388,333.43258046257944 A310.8986962610858 310.8986962610858 0.1420870966571255 0 1 460,330.299529872467 L460,332.299529872467 A308.8986962610858 308.8986962610858 0.1420870966571255 0 0 416.25701448397183,335.41242566213936 L266.6103220710961,356.8195449222435 A310.8986962610858 310.8986962610858 0.1420870966571255 0 1 222.58411758363488,359.9525955123559 Z" style="fill: rgb(0, 255, 255);"/><title>DK2010 → SNP2015
525m</title></g><g class="link" style="opacity: 0.8;"><path d="M222.58411758363488,186.29174551111717 A385.9803739180875 385.9803739180875 0.11400266069825316 0 1 266.4916546153845,188.79724770779427 L416.31997472790823,205.95245916718994 A383.9803739180875 383.9803739180875 0.11400266069825316 0 0 460,208.4449788271062 L460,210.4449788271062 A385.9803739180875 385.9803739180875 0.11400266069825316 0 1 416.09246296825035,207.9394766304291 L266.2641428557266,190.78426517103344 A383.9803739180875 383.9803739180875 0.11400266069825316 0 0 222.58411758363488,188.29174551111717 Z" style="fill: rgb(255, 255, 0);"/><title>SNP2010 → LD2015
535m</title></g><g class="link" style="opacity: 0.8;"><path d="M0,185.118803990394 A75.89611563151915 75.89611563151915 0.6470452427131916 0 0 45.75257173023697,169.7778082747205 L175.62588278752062,71.65170451587257 A77.89611563151915 77.89611563151915 0.6470452427131916 0 1 222.58411758363488,55.90644579970099 L222.58411758363488,57.90644579970099 A75.89611563151915 75.89611563151915 0.6470452427131916 0 0 176.8315458533979,73.24744151537449 L46.95823479611425,171.37354527422244 A77.89611563151915 77.89611563151915 0.6470452427131916 0 1 0,187.118803990394 Z" style="fill: rgb(255, 255, 0);"/><title>SNP2005 → DNV2010
547m</title></g><g class="link" style="opacity: 0.8;"><path d="M222.58411758363488,39.568996888809814 A0 0 0 0 0 222.58411758363488,39.568996888809814 L460,39.568996888809814 A0 0 0 0 0 460,39.568996888809814 L460,41.568996888809814 A0 0 0 0 0 460,41.568996888809814 L222.58411758363488,41.568996888809814 A0 0 0 0 0 222.58411758363488,41.568996888809814 Z" style="fill: rgb(128, 128, 128);"/><title>DNV2010 → OTH2015
569m</title></g><g class="link" style="opacity: 0.8;"><path d="M0,252.9034909102736 A209.49000066082706 209.49000066082706 0.19782298435502543 0 0 41.17216785517961,248.8177574178241 L181.0188792456131,220.7862449534706 A211.49000066082706 211.49000066082706 0.19782298435502543 0 1 222.58411758363488,216.66150498358007 L222.58411758363488,218.66150498358007 A209.49000066082706 209.49000066082706 0.19782298435502543 0 0 181.41194972845528,222.74723847602957 L41.565238338021786,250.77875094038308 A211.49000066082706 211.49000066082706 0.19782298435502543 0 1 0,254.9034909102736 Z" style="fill: rgb(0, 0, 255);"/><title>CON2005 → SNP2010
590m</title></g><g class="link" style="opacity: 0.8;"><path d="M0,355.02141366472415 A106.61648788368716 106.61648788368716 0.41071388312532386 0 0 42.56811938780662,346.15476312329474 L179.21747030895497,286.646675514815 A108.61648788368716 108.61648788368716 0.41071388312532386 0 1 222.58411758363488,277.61369703073 L222.58411758363488,279.61369703073 A106.61648788368716 106.61648788368716 0.41071388312532386 0 0 180.01599819582825,288.4803475721594 L43.36664727467992,347.98843518063916 A108.61648788368716 108.61648788368716 0.41071388312532386 0 1 0,357.02141366472415 Z" style="fill: rgb(0, 255, 255);"/><title>DK2005 → CON2010
616m</title></g><g class="link" style="opacity: 0.8;"><path d="M0,220.6323804142722 A233.77147459928958 233.77147459928958 0.1782884540132521 0 1 41.458299949500294,224.33796944678863 L181.4805084707353,249.57023152755676 A231.77147459928958 231.77147459928958 0.1782884540132521 0 0 222.58411758363488,253.2441178979852 L222.58411758363488,255.2441178979852 A233.77147459928958 233.77147459928958 0.1782884540132521 0 1 181.1258176341346,251.53852886546878 L41.1036091128996,226.30626678470065 A231.77147459928958 231.77147459928958 0.1782884540132521 0 0 0,222.6323804142722 Z" style="fill: rgb(255, 255, 0);"/><title>SNP2005 → CON2010
620m</title></g><g class="link" style="opacity: 0.8;"><path d="M222.58411758363488,82.92616195242012 A205.84810126190146 205.84810126190146 0.21543452834551857 0 0 266.58866390580766,78.16769417795079 L415.5679098136632,45.56649035704711 A207.84810126190146 207.84810126190146 0.21543452834551857 0 1 460,40.76178977551958 L460,42.76178977551958 A205.84810126190146 205.84810126190146 0.21543452834551857 0 0 415.99545367782724,47.520257549988905 L267.0162077699717,80.12146137089259 A207.84810126190146 207.84810126190146 0.21543452834551857 0 1 222.58411758363488,84.92616195242012 Z" style="fill: rgb(255, 0, 0);"/><title>LAB2010 → OTH2015
624m</title></g><g class="link" style="opacity: 0.8;"><path d="M0,310.0958409174223 A224.05147355345133 224.05147355345133 0.18459689127603518 0 0 41.12471259069745,306.2892783512749 L181.09230441610606,280.15415922398756 A226.05147355345133 226.05147355345133 0.18459689127603518 0 1 222.58411758363488,276.3136173002776 L222.58411758363488,278.3136173002776 A224.05147355345133 224.05147355345133 0.18459689127603518 0 0 181.45940499293744,282.120179866425 L41.49181316752884,308.25529899371236 A226.05147355345133 226.05147355345133 0.18459689127603518 0 1 0,312.0958409174223 Z" style="fill: rgb(255, 165, 0);"/><title>LD2005 → CON2010
685m</title></g><g class="link" style="opacity: 0.8;"><path d="M222.58411758363488,46.967032444088176 A78.20101343425577 78.20101343425577 0.7233416661535341 0 1 274.34484204167035,66.5487154000454 L409.5630620809089,185.94607071013596 A76.20101343425577 76.20101343425577 0.7233416661535341 0 0 460,205.02694985048996 L460,207.02694985048996 A78.20101343425577 78.20101343425577 0.7233416661535341 0 1 408.23927554196456,187.44526689453275 L273.021055502726,68.04791158444216 A76.20101343425577 76.20101343425577 0.7233416661535341 0 0 222.58411758363488,48.967032444088176 Z" style="fill: rgb(128, 128, 128);"/><title>DNV2010 → LD2015
690m</title></g><g class="link" style="opacity: 0.8;"><path d="M0,275.98781211746694 A199.19565248009016 199.19565248009016 0.21059506738695566 0 1 41.64022914143503,280.3887026453484 L181.3619721566082,310.2562685741486 A197.19565248009016 197.19565248009016 0.21059506738695566 0 0 222.58411758363488,314.61297248979145 L222.58411758363488,316.61297248979145 A199.19565248009016 199.19565248009016 0.21059506738695566 0 1 180.94388844219986,312.21208196191 L41.22214542702669,282.3445160331098 A197.19565248009016 197.19565248009016 0.21059506738695566 0 0 0,277.98781211746694 Z" style="fill: rgb(0, 0, 255);"/><title>CON2005 → LD2010
729m</title></g><g class="link" style="opacity: 0.8;"><path d="M0,358.2138247828287 A0 0 0 0 0 0,358.2138247828287 L222.58411758363488,358.2138247828287 A0 0 0 0 0 222.58411758363488,358.2138247828287 L222.58411758363488,360.2138247828287 A0 0 0 0 0 222.58411758363488,360.2138247828287 L0,360.2138247828287 A0 0 0 0 0 0,360.2138247828287 Z" style="fill: rgb(0, 255, 255);"/><title>DK2005 → DK2010
786m</title></g><g class="link" style="opacity: 0.8;"><path d="M222.58411758363488,330.7899899223853 A313.446172335713 313.446172335713 0.14090720045546612 0 1 266.6049310526369,333.896556449499 L416.26006929399983,355.12472327672583 A311.446172335713 311.446172335713 0.14090720045546612 0 0 460,358.2114677941849 L460,360.2114677941849 A313.446172335713 313.446172335713 0.14090720045546612 0 1 415.979186530998,357.1049012670712 L266.3240482896351,335.87673443984437 A311.446172335713 311.446172335713 0.14090720045546612 0 0 222.58411758363488,332.7899899223853 Z" style="fill: rgb(255, 165, 0);"/><title>LD2010 → GP2015
789m</title></g><g class="link" style="opacity: 0.8;"><path d="M0,353.5867676193696 A74.8511752967843 74.8511752967843 0.6623456640604203 0 0 46.031094032156666,337.7596283207503 L175.3230871116122,236.92863988698096 A76.8511752967843 76.8511752967843 0.6623456640604203 0 1 222.58411758363488,220.6786043750193 L222.58411758363488,222.6786043750193 A74.8511752967843 74.8511752967843 0.6623456640604203 0 0 176.5530235514782,238.50574367363853 L47.261030472022675,339.33673210740795 A76.8511752967843 76.8511752967843 0.6623456640604203 0 1 0,355.5867676193696 Z" style="fill: rgb(0, 255, 255);"/><title>DK2005 → SNP2010
819m</title></g><g class="link" style="opacity: 0.8;"><path d="M0,59.556171806527125 A68.09237762280534 68.09237762280534 1.032856123165344 0 1 58.475410354847405,92.76018067757042 L165.82623898186472,272.68787522134863 A66.09237762280534 66.09237762280534 1.032856123165344 0 0 222.58411758363488,304.91662048638375 L222.58411758363488,306.91662048638375 A68.09237762280534 68.09237762280534 1.032856123165344 0 1 164.10870722878747,273.71261161534045 L56.75787860177015,93.78491707156226 A66.09237762280534 66.09237762280534 1.032856123165344 0 0 0,61.556171806527125 Z" style="fill: rgb(128, 128, 128);"/><title>DNV2005 → LD2010
838m</title></g><g class="link" style="opacity: 0.8;"><path d="M0,356.5323106400183 A277.6638381372825 277.6638381372825 0.14826295056274907 0 0 41.0166031393202,353.486107180552 L181.27207371703463,332.5376965602582 A279.6638381372825 279.6638381372825 0.14826295056274907 0 1 222.58411758363488,329.46955143579225 L222.58411758363488,331.46955143579225 A277.6638381372825 277.6638381372825 0.14826295056274907 0 0 181.56751444431467,334.51575489525857 L41.31204386660023,355.46416551555234 A279.6638381372825 279.6638381372825 0.14826295056274907 0 1 0,358.5323106400183 Z" style="fill: rgb(0, 255, 255);"/><title>DK2005 → LD2010
895m</title></g><g class="link" style="opacity: 0.8;"><path d="M0,57.78125230793145 A69.86729712140101 69.86729712140101 0.876387482100111 0 1 53.688276280835645,82.93827994856564 L171.41755990543763,224.30809003887342 A66.58565585682587 66.58565585682587 0.876387482100111 0 0 222.58411758363488,248.28350133822974 L222.58411758363488,250.28350133822974 A68.58565585682587 68.58565585682587 0.876387482100111 0 1 169.8806956358052,225.58795261615555 L52.151412011203256,84.21814252584777 A67.86729712140101 67.86729712140101 0.876387482100111 0 0 0,59.78125230793145 Z" style="fill: rgb(128, 128, 128);"/><title>DNV2005 → CON2010
937m</title></g><g class="link" style="opacity: 0.8;"><path d="M0,55.82277871562121 A79.20418356683201 79.20418356683201 0.6294658739669516 0 1 46.6285392839363,71.00288853878371 L177.14583374269955,166.0582393786742 A77.18239150457568 77.18239150457568 0.6294658739669516 0 0 222.58411758363488,180.85085672148364 L222.58411758363488,182.87264878373998 A79.20418356683201 79.20418356683201 0.6294658739669516 0 1 175.95557829969857,167.69253896057748 L45.43828384093532,72.637188120687 A77.18239150457568 77.18239150457568 0.6294658739669516 0 0 0,57.84457077787755 Z" style="fill: rgb(128, 128, 128);"/><title>DNV2005 → SNP2010
1.01</title></g><g class="link" style="opacity: 0.8;"><path d="M222.58411758363488,41.13799377761963 A284.99890317560227 284.99890317560227 0.15537124307547057 0 1 266.68680896229506,44.57104777322106 L416.2334515259646,67.99508674281928 A282.8266919990596 282.8266919990596 0.15537124307547057 0 0 460,71.40197460874151 L460,73.57418578528419 A284.99890317560227 284.99890317560227 0.15537124307547057 0 1 415.8973086213398,70.14113178968275 L266.35066605767025,46.71709282008454 A282.8266919990596 282.8266919990596 0.15537124307547057 0 0 222.58411758363488,43.31020495416229 Z" style="fill: rgb(128, 128, 128);"/><title>DNV2010 → CON2015
1.09</title></g><g class="link" style="opacity: 0.8;"><path d="M222.58411758363488,123.93663279035073 A115.6505904115806 115.6505904115806 0.4117064992267663 0 1 268.86445530085314,133.60048156257625 L414.59718647792647,197.23636574021702 A113.45773279050974 113.45773279050974 0.4117064992267663 0 0 460,206.71697770964167 L460,208.90983533071253 A115.6505904115806 115.6505904115806 0.4117064992267663 0 1 413.71966228278177,199.245986558487 L267.98693110570844,135.61010238084623 A113.45773279050974 113.45773279050974 0.4117064992267663 0 0 222.58411758363488,126.12949041142159 Z" style="fill: rgb(255, 0, 0);"/><title>LAB2010 → LD2015
1.10</title></g><g class="link" style="opacity: 0.8;"><path d="M0,251.08264640277014 A84.99341285091035 84.99341285091035 0.5452255535374795 0 0 44.07851494792718,238.75948020088836 L177.3488203747125,157.9236853502058 A87.22395243246214 87.22395243246214 0.5452255535374795 0 1 222.58411758363488,145.27711396830668 L222.58411758363488,147.50765354985847 A84.99341285091035 84.99341285091035 0.5452255535374795 0 0 178.5056026357077,159.83081975174025 L45.23529720892238,240.6666146024228 A87.22395243246214 87.22395243246214 0.5452255535374795 0 1 0,253.31318598432193 Z" style="fill: rgb(0, 0, 255);"/><title>CON2005 → LAB2010
1.12</title></g><g class="link" style="opacity: 0.8;"><path d="M0,351.382997418807 A65.95975450122458 65.95975450122458 0.9046623655191383 0 0 51.85865116244615,326.18314372062093 L168.8505897857248,177.3347899623449 A68.34443670608758 68.34443670608758 0.9046623655191383 0 1 222.58411758363488,151.22387097694494 L222.58411758363488,153.60855318180793 A65.95975450122458 65.95975450122458 0.9046623655191383 0 0 170.7254664211887,178.808406879994 L53.733527797910085,327.65676063827004 A68.34443670608758 68.34443670608758 0.9046623655191383 0 1 0,353.76767962367 Z" style="fill: rgb(0, 255, 255);"/><title>DK2005 → LAB2010
1.19</title></g><g class="link" style="opacity: 0.8;"><path d="M222.58411758363488,180.85085672148364 A80.6226730664467 80.6226730664467 0.6495551392710757 0 0 271.34730625957286,164.4322866589262 L409.7743699688994,59.29655997327998 A83.0406021325643 83.0406021325643 0.6495551392710757 0 1 460,42.38558577341954 L460,44.803514839537165 A80.6226730664467 80.6226730664467 0.6495551392710757 0 0 411.236811324062,61.22208490209459 L272.80974761473544,166.35781158774083 A83.0406021325643 83.0406021325643 0.6495551392710757 0 1 222.58411758363488,183.26878578760125 Z" style="fill: rgb(255, 255, 0);"/><title>SNP2010 → OTH2015
1.21</title></g><g class="link" style="opacity: 0.8;"><path d="M0,222.25243606555438 A97.17118475122358 97.17118475122358 0.4725971171543888 0 1 44.23234882655253,232.90345863915257 L179.47143455085214,302.0427466869531 A94.71146342526235 94.71146342526235 0.4725971171543888 0 0 222.58411758363488,312.4241569528013 L222.58411758363488,314.88387827876255 A97.17118475122358 97.17118475122358 0.4725971171543888 0 1 178.35176875708234,304.23285570516435 L43.11268303278276,235.09356765736385 A94.71146342526235 94.71146342526235 0.4725971171543888 0 0 0,224.71215739151563 Z" style="fill: rgb(255, 255, 0);"/><title>SNP2005 → LD2010
1.23</title></g><g class="link" style="opacity: 0.8;"><path d="M222.58411758363488,184.2823222160149 A457.63953212799515 457.63953212799515 0.09547539824103635 0 0 266.21108296552444,182.19808778292935 L416.13716050421687,167.84018254569634 A460.11381192670376 460.11381192670376 0.09547539824103635 0 1 460,165.7446794638348 L460,168.21895926254336 A457.63953212799515 457.63953212799515 0.09547539824103635 0 0 416.37303461811047,170.30319369562892 L266.44695707941804,184.66109893286193 A460.11381192670376 460.11381192670376 0.09547539824103635 0 1 222.58411758363488,186.75660201472346 Z" style="fill: rgb(255, 255, 0);"/><title>SNP2010 → LAB2015
1.24</title></g><g class="link" style="opacity: 0.8;"><path d="M222.58411758363488,305.078382517842 A70.56858966201554 70.56858966201554 0.8908142546340049 0 0 277.4571232093949,278.8818460028382 L403.1922172638781,123.39067455426691 A73.05678017448298 73.05678017448298 0.8908142546340049 0 1 460,96.27046967734282 L460,98.75866018981026 A70.56858966201554 70.56858966201554 0.8908142546340049 0 0 405.12699437424,124.95519670481404 L279.3919003197568,280.4463681533854 A73.05678017448298 73.05678017448298 0.8908142546340049 0 1 222.58411758363488,307.5665730303094 Z" style="fill: rgb(255, 165, 0);"/><title>LD2010 → CON2015
1.24</title></g><g class="link" style="opacity: 0.8;"><path d="M0,307.80361276683686 A95.11500092352348 95.11500092352348 0.46964389264272577 0 0 43.046078276749725,297.5054648011649 L178.357872816517,228.8322955382029 A97.72270739331147 97.72270739331147 0.46964389264272577 0 1 222.58411758363488,218.25180990953174 L222.58411758363488,220.85951637931976 A95.11500092352348 95.11500092352348 0.46964389264272577 0 0 179.53803930688514,231.1576643449917 L44.226244767117905,299.8308336079537 A97.72270739331147 97.72270739331147 0.46964389264272577 0 1 0,310.4113192366249 Z" style="fill: rgb(255, 165, 0);"/><title>LD2005 → SNP2010
1.30</title></g><g class="link" style="opacity: 0.8;"><path d="M222.58411758363488,84.54995795032006 A770.4914596532717 770.4914596532717 0.05660024598306834 0 0 266.17084270971253,83.31611885820533 L416.2454929747851,74.81277439380571 A773.4573746192564 773.4573746192564 0.05660024598306834 0 1 460,73.57418578528417 L460,76.54010075126878 A770.4914596532717 770.4914596532717 0.05660024598306834 0 0 416.4132748739224,77.77393984338352 L266.3386246088498,86.27728430778313 A773.4573746192564 773.4573746192564 0.05660024598306834 0 1 222.58411758363488,87.51587291630467 Z" style="fill: rgb(255, 0, 0);"/><title>LAB2010 → CON2015
1.48</title></g><g class="link" style="opacity: 0.8;"><path d="M0,52.44231514028918 A247.1339242205522 247.1339242205522 0.16883066317135476 0 1 41.525852268999515,55.95608400832778 L181.6262837745563,79.83666077384461 A243.75346064522014 243.75346064522014 0.16883066317135476 0 0 222.58411758363488,83.30236595452016 L222.58411758363488,86.6828295298522 A247.1339242205522 247.1339242205522 0.16883066317135476 0 1 181.05826531463535,83.1690606618136 L40.95783380907859,59.28848389629675 A243.75346064522014 243.75346064522014 0.16883066317135476 0 0 0,55.82277871562121 Z" style="fill: rgb(128, 128, 128);"/><title>DNV2005 → LAB2010
1.69</title></g><g class="link" style="opacity: 0.8;"><path d="M0,150.12834438548214 A90.9630619258449 90.9630619258449 0.5191003383601283 0 1 45.12670163583334,162.11128581005423 L179.14607776131348,238.68564859211162 A87.55918254742551 87.55918254742551 0.5191003383601283 0 0 222.58411758363488,250.22018286828364 L222.58411758363488,253.62406224670303 A90.9630619258449 90.9630619258449 0.5191003383601283 0 1 177.45741594780154,241.64112082213094 L43.438039822321386,165.06675804007355 A87.55918254742551 87.55918254742551 0.5191003383601283 0 0 0,153.53222376390153 Z" style="fill: rgb(255, 0, 0);"/><title>LAB2005 → CON2010
1.70</title></g><g class="link" style="opacity: 0.8;"><path d="M222.58411758363488,275.26390140847275 A218.47149000690524 218.47149000690524 0.20520862651631044 0 1 267.10236192394433,279.8477623512037 L416.19165518173776,310.8789800743339 A214.9876867115355 214.9876867115355 0.20520862651631044 0 0 460,315.38974557629456 L460,318.8735488716643 A218.47149000690524 218.47149000690524 0.20520862651631044 0 1 415.4817556596906,314.28968792893335 L266.39246240189715,283.2584702058031 A214.9876867115355 214.9876867115355 0.20520862651631044 0 0 222.58411758363488,278.7477047038425 Z" style="fill: rgb(0, 0, 255);"/><title>CON2010 → SNP2015
1.74</title></g><g class="link" style="opacity: 0.8;"><path d="M0,304.0873953397504 A69.09063353069995 69.09063353069995 0.7553240442502739 0 0 47.36333063387358,285.29815893616666 L172.6732283920843,167.30751735974064 A72.80685095778641 72.80685095778641 0.7553240442502739 0 1 222.58411758363488,147.50765354985847 L222.58411758363488,151.22387097694494 A69.09063353069995 69.09063353069995 0.7553240442502739 0 0 175.2207869497613,170.0131073805287 L49.91088919155056,288.00374895695467 A72.80685095778641 72.80685095778641 0.7553240442502739 0 1 0,307.80361276683686 Z" style="fill: rgb(255, 165, 0);"/><title>LD2005 → LAB2010
1.86</title></g><g class="link" style="opacity: 0.8;"><path d="M0,87.76489878632343 A213.73071048473992 213.73071048473992 0.19288441272633494 0 0 40.970170466228474,83.80134906865851 L180.8630302140957,56.478510308198445 A217.64804842678956 217.64804842678956 0.19288441272633494 0 1 222.58411758363488,52.44231514028918 L222.58411758363488,56.35965308233881 A213.73071048473992 213.73071048473992 0.19288441272633494 0 0 181.6139471174064,60.32320280000372 L41.721087369539184,87.6460415604638 A217.64804842678956 217.64804842678956 0.19288441272633494 0 1 0,91.68223672837307 Z" style="fill: rgb(255, 0, 0);"/><title>LAB2005 → DNV2010
1.96</title></g><g class="link" style="opacity: 0.8;"><path d="M222.58411758363488,43.31020495416229 A117.34056616641277 117.34056616641277 0.40831202597407357 0 1 269.17544313134715,52.956496193996976 L414.9837346298381,116.03692996258323 A113.3737665356386 113.3737665356386 0.40831202597407357 0 0 460,125.35711995901461 L460,129.32391958978877 A117.34056616641277 117.34056616641277 0.40831202597407357 0 1 413.4086744522877,119.67762834995409 L267.6003829537967,56.59719458136782 A113.3737665356386 113.3737665356386 0.40831202597407357 0 0 222.58411758363488,47.27700458493645 Z" style="fill: rgb(128, 128, 128);"/><title>DNV2010 → LAB2015
1.98</title></g><g class="link" style="opacity: 0.8;"><path d="M222.58411758363488,271.2006512440188 A145.25782694838415 145.25782694838415 0.30947173163469 0 0 266.8231885998013,264.3001185933814 L414.52344377317013,217.0736813398524 A149.32107711283817 149.32107711283817 0.30947173163469 0 1 460,209.98012232349987 L460,214.0433724879539 A145.25782694838415 145.25782694838415 0.30947173163469 0 0 415.76092898383354,220.9439051385913 L268.0606738104647,268.17034239212023 A149.32107711283817 149.32107711283817 0.30947173163469 0 1 222.58411758363488,275.26390140847275 Z" style="fill: rgb(0, 0, 255);"/><title>CON2010 → LD2015
2.03</title></g><g class="link" style="opacity: 0.8;"><path d="M222.58411758363488,267.06365230583623 A98.29587902727937 98.29587902727937 0.48444160394652114 0 0 268.36191287759846,255.75325075479716 L412.2955451919494,180.00538401689582 A102.4328779654619 102.4328779654619 0.48444160394652114 0 1 460,168.2189592625434 L460,172.35595820072595 A98.29587902727937 98.29587902727937 0.48444160394652114 0 0 414.22220470603645,183.666359751765 L270.28857239168553,259.41422648966636 A102.4328779654619 102.4328779654619 0.48444160394652114 0 1 222.58411758363488,271.20065124401873 Z" style="fill: rgb(0, 0, 255);"/><title>CON2010 → LAB2015
2.07</title></g><g class="link" style="opacity: 0.8;"><path d="M222.58411758363488,313.9490770517174 A97.03943623814064 97.03943623814064 0.48913325719485945 0 0 268.17915984795974,302.57027533335247 L411.9845415631839,226.02621873254247 A102.19078184888934 102.19078184888934 0.48913325719485945 0 1 460,214.0433724879539 L460,219.1947180987026 A97.03943623814064 97.03943623814064 0.48913325719485945 0 0 414.40495773567517,230.5735198170675 L270.599576020451,307.11757641787756 A102.19078184888934 102.19078184888934 0.48913325719485945 0 1 222.58411758363488,319.10042266246614 Z" style="fill: rgb(255, 165, 0);"/><title>LD2010 → LD2015
2.58</title></g><g class="link" style="opacity: 0.8;"><path d="M0,153.53222376390153 A74.31971279329493 74.31971279329493 0.7426622802825013 0 1 50.25881948583647,173.10277424791585 L176.1591698810296,288.6771998066239 A68.65041429541917 68.65041429541917 0.7426622802825013 0 0 222.58411758363488,306.7548584549255 L222.58411758363488,312.42415695280124 A74.31971279329493 74.31971279329493 0.7426622802825013 0 1 172.32529809779842,292.8536064687869 L46.42494770260525,177.2791809100789 A68.65041429541917 68.65041429541917 0.7426622802825013 0 0 0,159.20152226177726 Z" style="fill: rgb(255, 0, 0);"/><title>LAB2005 → LD2010
2.83</title></g><g class="link" style="opacity: 0.8;"><path d="M0,144.0360988293701 A200.22622917071715 200.22622917071715 0.21172587320372482 0 1 42.07705068364004,148.5072140089301 L181.78733735258945,178.53757537900816 A194.13398361460509 194.13398361460509 0.21172587320372482 0 0 222.58411758363488,182.87264878373998 L222.58411758363488,188.96489433985204 A200.22622917071715 200.22622917071715 0.21172587320372482 0 1 180.50706689999484,184.49377916029204 L40.79678023104543,154.46341779021398 A194.13398361460509 194.13398361460509 0.21172587320372482 0 0 0,150.12834438548217 Z" style="fill: rgb(255, 0, 0);"/><title>LAB2005 → SNP2010
3.05</title></g><g class="link" style="opacity: 0.8;"><path d="M0,186.66559670775618 A160.05444689547195 160.05444689547195 0.2584319063945266 0 0 40.90429015219702,181.35049522307602 L180.08499485468155,144.559025583444 A166.29486923292941 166.29486923292941 0.2584319063945266 0 1 222.58411758363488,139.03669163084925 L222.58411758363488,145.2771139683067 A160.05444689547195 160.05444689547195 0.2584319063945266 0 0 181.67982743143784,150.59221545298686 L42.499122728953324,187.3836850926189 A166.29486923292941 166.29486923292941 0.2584319063945266 0 1 0,192.90601904521364 Z" style="fill: rgb(255, 255, 0);"/><title>SNP2005 → LAB2010
3.12</title></g><g class="link" style="opacity: 0.8;"><path d="M222.58411758363488,307.5665730303094 A79.62200752541335 79.62200752541335 0.6367911447102247 0 0 269.9288412003295,291.9612916632665 L408.86012102026643,189.21215968616158 A86.0045115468213 86.0045115468213 0.6367911447102247 0 1 460,172.35595820072592 L460,178.73846222213388 A79.62200752541335 79.62200752541335 0.6367911447102247 0 0 412.65527638330536,194.34374358917685 L273.7239965633684,297.0928755662817 A86.0045115468213 86.0045115468213 0.6367911447102247 0 1 222.58411758363488,313.9490770517174 Z" style="fill: rgb(255, 165, 0);"/><title>LD2010 → LAB2015
3.19</title></g><g class="link" style="opacity: 0.8;"><path d="M222.58411758363488,48.65706030323991 A76.27891165868004 76.27891165868004 0.8551924982185225 0 1 280.1516003895161,74.89141893936532 L408.1978375157612,222.186161502072 A68.6396622410621 68.6396622410621 0.8551924982185225 0 0 460,245.79317786790696 L460,253.43242728552494 A76.27891165868004 76.27891165868004 0.8551924982185225 0 1 402.43251719411876,227.19806864939952 L274.38628006787366,79.90332608669281 A68.6396622410621 68.6396622410621 0.8551924982185225 0 0 222.58411758363488,56.29630972085787 Z" style="fill: rgb(128, 128, 128);"/><title>DNV2010 → SNP2015
3.82</title></g><g class="link" style="opacity: 0.8;"><path d="M222.58411758363488,319.1004226624661 A37261.258155666415 37261.258155666415 0.0011707470397168684 0 0 266.2076153000912,319.07488661914164 L416.36256918516744,318.89909307105654 A37273.15919072052 37273.15919072052 0.0011707470397168684 0 1 460,318.8735488716643 L460,330.7745839257685 A37261.258155666415 37261.258155666415 0.0011707470397168684 0 0 416.3765022835437,330.800119969093 L266.22154839846746,330.97591351717807 A37273.15919072052 37273.15919072052 0.0011707470397168684 0 1 222.58411758363488,331.0014577165703 Z" style="fill: rgb(255, 165, 0);"/><title>LD2010 → SNP2015
5.95</title></g><g class="link" style="opacity: 0.8;"><path d="M0,40 A0 0 0 0 0 0,40 L222.58411758363488,40 A0 0 0 0 0 222.58411758363488,40 L222.58411758363488,52.44231514028918 A0 0 0 0 0 222.58411758363488,52.44231514028918 L0,52.44231514028918 A0 0 0 0 0 0,52.44231514028918 Z" style="fill: rgb(128, 128, 128);"/><title>DNV2005 → DNV2010
6.22</title></g><g class="link" style="opacity: 0.8;"><path d="M0,311.7803625982197 A1636.4181412769133 1636.4181412769133 0.02510518542617013 0 1 41.07826548549745,312.29602841857616 L181.83801267787436,315.830570575942 A1623.1859954675804 1623.1859954675804 0.02510518542617013 0 0 222.58411758363488,316.3420667008204 L222.58411758363488,329.5742125101532 A1636.4181412769133 1636.4181412769133 0.02510518542617013 0 1 181.50585209813744,329.05854668979674 L40.74610490576051,325.5240045324309 A1623.1859954675804 1623.1859954675804 0.02510518542617013 0 0 0,325.0125084075525 Z" style="fill: rgb(255, 165, 0);"/><title>LD2005 → LD2010
6.62</title></g><g class="link" style="opacity: 0.8;"><path d="M222.58411758363488,248.34681980817587 A65.76455804631694 65.76455804631694 0.7799530297890012 0 0 268.8327817251365,229.3373487594678 L395.4605715355534,104.08111466835933 A91.77361267214337 91.77361267214337 0.7799530297890012 0 1 460,77.55363717968243 L460,96.27046967734282 A73.05678017448298 73.05678017448298 0.7799530297890012 0 0 408.6231096213015,117.38778254152379 L281.9953198108846,242.64401663263223 A84.48139054397733 84.48139054397733 0.7799530297890012 0 1 222.58411758363488,267.0636523058363 Z" style="fill: rgb(0, 0, 255);"/><title>CON2010 → CON2015
9.36</title></g><g class="link" style="opacity: 0.8;"><path d="M0,254.49379583622527 A20075.734436012244 20075.734436012244 0.00203863241761737 0 1 40.927014679788364,254.53551342011394 L181.70147354881152,254.82250119311198 A20053.96951394203 20053.96951394203 0.00203863241761737 0 0 222.58411758363488,254.86417354926738 L222.58411758363488,276.6290956194801 A20075.734436012244 20075.734436012244 0.00203863241761737 0 1 181.65710290384652,276.5873780355914 L40.882644034823365,276.3003902625934 A20053.96951394203 20053.96951394203 0.00203863241761737 0 0 0,276.258717906438 Z" style="fill: rgb(0, 0, 255);"/><title>CON2005 → CON2010
10.9</title></g><g class="link" style="opacity: 0.8;"><path d="M0,192.9060190452136 A1872.18081216918 1872.18081216918 0.02169058376972921 0 0 40.605510540585094,192.46562316462496 L181.36901266751627,189.41190170859196 A1900.2871178869561 1900.2871178869561 0.02169058376972921 0 1 222.58411758363488,188.964894339852 L222.58411758363488,217.07120005762843 A1872.18081216918 1872.18081216918 0.02169058376972921 0 0 181.97860704304978,217.51159593821708 L41.2151049161186,220.5653173942501 A1900.2871178869561 1900.2871178869561 0.02169058376972921 0 1 0,221.01232476299003 Z" style="fill: rgb(255, 255, 0);"/><title>SNP2005 → SNP2010
14.1</title></g><g class="link" style="opacity: 0.8;"><path d="M222.58411758363488,126.12949041142157 A99.94750755779253 99.94750755779253 0.6107119795105038 0 1 279.8991044908878,144.19600785040558 L416.25779041574623,239.6442466556937 A76.27891165868004 76.27891165868004 0.6107119795105038 0 0 460,253.43242728552488 L460,282.30466615813 A105.15115053128514 105.15115053128514 0.6107119795105038 0 1 399.70097941163414,263.29753790428913 L263.3422934867757,167.84929909900097 A71.07526868518744 71.07526868518744 0.6107119795105038 0 0 222.58411758363488,155.00172928402668 Z" style="fill: rgb(255, 0, 0);"/><title>LAB2010 → SNP2015
14.4</title></g><g class="link" style="opacity: 0.8;"><path d="M222.58411758363488,187.82688900751083 A120.20557069059933 120.20557069059933 0.47756722144390396 0 1 277.832995847182,201.2760047378951 L411.670433561452,270.5399036387761 A105.15115053128514 105.15115053128514 0.47756722144390396 0 0 460,282.30466615813003 L460,315.3897455762945 A138.23622994944964 138.23622994944964 0.47756722144390396 0 1 396.463871048481,299.92328221655976 L262.626433334211,230.65938331567878 A87.12049127243483 87.12049127243483 0.47756722144390396 0 0 222.58411758363488,220.9119684256753 Z" style="fill: rgb(255, 255, 0);"/><title>SNP2010 → SNP2015
16.5</title></g><g class="link" style="opacity: 0.8;"><path d="M222.58411758363488,87.51587291630469 A226.71407221924812 226.71407221924812 0.2136491346096725 0 1 270.65372882987117,92.67051063349834 L419.65259034143065,124.99735496350613 A190.29331234520208 190.29331234520208 0.2136491346096725 0 0 460,129.32391958978877 L460,165.7446794638348 A226.71407221924812 226.71407221924812 0.2136491346096725 0 1 411.9303887537637,160.59004174664116 L262.9315272422042,128.26319741663337 A190.29331234520208 190.29331234520208 0.2136491346096725 0 0 222.58411758363488,123.93663279035073 Z" style="fill: rgb(255, 0, 0);"/><title>LAB2010 → LAB2015
18.2</title></g><g class="link" style="opacity: 0.8;"><path d="M0,91.68223672837306 A1461.0599003728587 1461.0599003728587 0.0275133291145917 0 0 40.193550472941894,91.12927265466342 L180.95031979552618,87.25560785269316 A1513.4137624738557 1513.4137624738557 0.0275133291145917 0 1 222.58411758363488,86.68282952985219 L222.58411758363488,139.03669163084925 A1461.0599003728587 1461.0599003728587 0.0275133291145917 0 0 182.39056711069298,139.58965570455888 L41.63379778810868,143.46332050652913 A1513.4137624738557 1513.4137624738557 0.0275133291145917 0 1 0,144.0360988293701 Z" style="fill: rgb(255, 0, 0);"/><title>LAB2005 → LAB2010
26.2</title></g></g><g class="nodes"><g class="node" transform="translate(0,40)"><title>DNV2005</title><text dy=".35em" text-anchor="end" transform="translate(-4, 10.69720458984375)">DNV2005</text><line x1="0" x2="0" y1="0" y2="21.394409775068894" style="stroke: rgb(0, 0, 0);"/><rect x="-5" y="-5" width="10" style="fill: none; visibility: hidden; pointer-events: all;" height="26.394409775068894"/></g><g class="node" transform="translate(222.58411758363488,40)"><title>DNV2010</title><text dy=".35em" text-anchor="start" transform="translate(-4, -10)">DNV2010</text><line x1="0" x2="0" y1="-5" y2="17.453238517063173" style="stroke: rgb(0, 0, 0);"/><rect x="-5" y="-5" width="10" style="fill: none; visibility: hidden; pointer-events: all;" height="22.453238517063173"/></g><g class="node" transform="translate(0,87.76489878632343)"><title>LAB2005</title><text dy=".35em" text-anchor="end" transform="translate(-4, 35.71831130981445)">LAB2005</text><line x1="0" x2="0" y1="0" y2="71.43662347545386" style="stroke: rgb(0, 0, 0);"/><rect x="-5" y="-5" width="10" style="fill: none; visibility: hidden; pointer-events: all;" height="76.43662347545386"/></g><g class="node" transform="translate(0,185.57201127303182)"><title>SNP2005</title><text dy=".35em" text-anchor="end" transform="translate(-4, 19.570072174072266)">SNP2005</text><line x1="0" x2="0" y1="0" y2="39.14014611848378" style="stroke: rgb(0, 0, 0);"/><rect x="-5" y="-5" width="10" style="fill: none; visibility: hidden; pointer-events: all;" height="44.14014611848378"/></g><g class="node" transform="translate(222.58411758363488,248.34681980817584)"><title>CON2010</title><text dy=".35em" text-anchor="start" transform="translate(-4, -10)">CON2010</text><line x1="0" x2="0" y1="-5" y2="30.882435272209197" style="stroke: rgb(0, 0, 0);"/><rect x="-5" y="-5" width="10" style="fill: none; visibility: hidden; pointer-events: all;" height="35.88243527220919"/></g><g class="node" transform="translate(0,251.08264640277014)"><title>CON2005</title><text dy=".35em" text-anchor="end" transform="translate(-4, 13.317130088806152)">CON2005</text><line x1="0" x2="0" y1="0" y2="26.63425992572575" style="stroke: rgb(0, 0, 0);"/><rect x="-5" y="-5" width="10" style="fill: none; visibility: hidden; pointer-events: all;" height="31.63425992572575"/></g><g class="node" transform="translate(0,304.0873953397504)"><title>LD2005</title><text dy=".35em" text-anchor="end" transform="translate(-4, 10.462556838989258)">LD2005</text><line x1="0" x2="0" y1="0" y2="20.925113067802098" style="stroke: rgb(0, 0, 0);"/><rect x="-5" y="-5" width="10" style="fill: none; visibility: hidden; pointer-events: all;" height="25.925113067802098"/></g><g class="node" transform="translate(0,351.382997418807)"><title>DK2005</title><text dy=".35em" text-anchor="end" transform="translate(-4, 4.308501243591309)">DK2005</text><line x1="0" x2="0" y1="0" y2="8.617002581192946" style="stroke: rgb(0, 0, 0);"/><rect x="-5" y="-5" width="10" style="fill: none; visibility: hidden; pointer-events: all;" height="13.617002581192946"/></g><g class="node" transform="translate(222.58411758363488,83.30236595452016)"><title>LAB2010</title><text dy=".35em" text-anchor="start" transform="translate(-4, -10)">LAB2010</text><line x1="0" x2="0" y1="-5" y2="71.69936332950651" style="stroke: rgb(0, 0, 0);"/><rect x="-5" y="-5" width="10" style="fill: none; visibility: hidden; pointer-events: all;" height="76.69936332950651"/></g><g class="node" transform="translate(222.58411758363488,305.078382517842)"><title>LD2010</title><text dy=".35em" text-anchor="start" transform="translate(-4, -10)">LD2010</text><line x1="0" x2="0" y1="-5" y2="27.50013961035841" style="stroke: rgb(0, 0, 0);"/><rect x="-5" y="-5" width="10" style="fill: none; visibility: hidden; pointer-events: all;" height="32.50013961035841"/></g><g class="node" transform="translate(222.58411758363488,180.85085672148364)"><title>SNP2010</title><text dy=".35em" text-anchor="start" transform="translate(-4, -10)">SNP2010</text><line x1="0" x2="0" y1="-5" y2="41.64683564923522" style="stroke: rgb(0, 0, 0);"/><rect x="-5" y="-5" width="10" style="fill: none; visibility: hidden; pointer-events: all;" height="46.64683564923522"/></g><g class="node" transform="translate(222.58411758363488,358.42764956565736)"><title>DK2010</title><text dy=".35em" text-anchor="start" transform="translate(-4, -10)">DK2010</text><line x1="0" x2="0" y1="-5" y2="1.5723504343426187" style="stroke: rgb(0, 0, 0);"/><rect x="-5" y="-5" width="10" style="fill: none; visibility: hidden; pointer-events: all;" height="6.572350434342619"/></g><g class="node" transform="translate(460,71.40197460874151)"><title>CON2015</title><text dy=".35em" text-anchor="start" transform="translate(4, 13.678342819213867)">CON2015</text><line x1="0" x2="0" y1="0" y2="27.35668558106874" style="stroke: rgb(0, 0, 0);"/><rect x="-5" y="-5" width="10" style="fill: none; visibility: hidden; pointer-events: all;" height="32.35668558106874"/></g><g class="node" transform="translate(460,125.35711995901461)"><title>LAB2015</title><text dy=".35em" text-anchor="start" transform="translate(4, 26.690671920776367)">LAB2015</text><line x1="0" x2="0" y1="0" y2="53.381342263119265" style="stroke: rgb(0, 0, 0);"/><rect x="-5" y="-5" width="10" style="fill: none; visibility: hidden; pointer-events: all;" height="58.381342263119265"/></g><g class="node" transform="translate(460,205.33692199133822)"><title>LD2015</title><text dy=".35em" text-anchor="start" transform="translate(4, 6.928897857666016)">LD2015</text><line x1="0" x2="0" y1="0" y2="13.857796107364392" style="stroke: rgb(0, 0, 0);"/><rect x="-5" y="-5" width="10" style="fill: none; visibility: hidden; pointer-events: all;" height="18.857796107364393"/></g><g class="node" transform="translate(460,245.79317786790696)"><title>SNP2015</title><text dy=".35em" text-anchor="start" transform="translate(4, 43.015647888183594)">SNP2015</text><line x1="0" x2="0" y1="0" y2="86.03129795125855" style="stroke: rgb(0, 0, 0);"/><rect x="-5" y="-5" width="10" style="fill: none; visibility: hidden; pointer-events: all;" height="91.03129795125855"/></g><g class="node" transform="translate(460,358.42293558836985)"><title>GP2015</title><text dy=".35em" text-anchor="start" transform="translate(4, 0.7885321974754333)">GP2015</text><line x1="0" x2="0" y1="0" y2="1.5770644116301116" style="stroke: rgb(0, 0, 0);"/><rect x="-5" y="-5" width="10" style="fill: none; visibility: hidden; pointer-events: all;" height="6.577064411630111"/></g><g class="node" transform="translate(460,40)"><title>OTH2015</title><text dy=".35em" text-anchor="start" transform="translate(4, 2.4017574787139893)">OTH2015</text><line x1="0" x2="0" y1="0" y2="4.803514839537161" style="stroke: rgb(0, 0, 0);"/><rect x="-5" y="-5" width="10" style="fill: none; visibility: hidden; pointer-events: all;" height="9.803514839537161"/></g></g><g class="slice-titles"/></g></svg>